<svg xmlns="http://www.w3.org/2000/svg" xmlns:xlink="http://www.w3.org/1999/xlink" width="1920" zoomAndPan="magnify" viewBox="0 0 1440 809.999993" height="1080" preserveAspectRatio="xMidYMid meet" version="1.0"><defs><clipPath id="id1"><path d="M 484 232 L 1022.953125 232 L 1022.953125 672.097656 L 484 672.097656 Z M 484 232 " clip-rule="nonzero"/></clipPath><clipPath id="id2"><path d="M 583 107.347656 L 1022.953125 107.347656 L 1022.953125 614 L 583 614 Z M 583 107.347656 " clip-rule="nonzero"/></clipPath><clipPath id="id3"><path d="M 459.703125 107.347656 L 932 107.347656 L 932 672.097656 L 459.703125 672.097656 Z M 459.703125 107.347656 " clip-rule="nonzero"/></clipPath></defs><path fill="#cccccc" d="M 1021.632812 603.984375 L 592.679688 603.984375 L 741.164062 307.3125 L 708.167969 241.386719 L 493.691406 669.910156 L 988.636719 669.910156 Z M 1021.632812 603.984375 " fill-opacity="1" fill-rule="nonzero"/><g clip-path="url(#id1)"><path stroke-linecap="butt" transform="matrix(0.000000000000000101, -1.64818, 1.649824, 0.000000000000000101, 427.696833, 719.357144)" fill="none" stroke-linejoin="miter" d="M 70.000109 359.999496 L 70.000109 100.000247 L 249.999806 190.000351 L 289.998949 170.000591 L 30.000966 40.000966 L 30.000966 339.999736 Z M 70.000109 359.999496 " stroke="#000000" stroke-width="1" stroke-opacity="1" stroke-miterlimit="4"/></g><path fill="#999999" d="M 592.679688 603.984375 L 625.675781 538.058594 L 922.644531 538.058594 L 708.167969 109.53125 L 774.160156 109.53125 L 1021.632812 603.984375 Z M 592.679688 603.984375 " fill-opacity="1" fill-rule="nonzero"/><g clip-path="url(#id2)"><path stroke-linecap="butt" transform="matrix(0.000000000000000101, -1.64818, 1.649824, 0.000000000000000101, 427.696833, 719.357144)" fill="none" stroke-linejoin="miter" d="M 70.000109 100.000247 L 109.999251 120.000007 L 109.999251 300.000215 L 369.999605 170.000591 L 369.999605 210.000111 L 70.000109 359.999496 Z M 70.000109 100.000247 " stroke="#000000" stroke-width="1" stroke-opacity="1" stroke-miterlimit="4"/></g><path fill="#e6e6e6" d="M 856.652344 538.058594 L 708.167969 241.386719 L 493.691406 669.910156 L 460.691406 603.984375 L 708.167969 109.53125 L 922.644531 538.058594 Z M 856.652344 538.058594 " fill-opacity="1" fill-rule="nonzero"/><g clip-path="url(#id3)"><path stroke-linecap="butt" transform="matrix(0.000000000000000101, -1.64818, 1.649824, 0.000000000000000101, 427.696833, 719.357144)" fill="none" stroke-linejoin="miter" d="M 109.999251 260.000695 L 289.998949 170.000591 L 30.000966 40.000966 L 70.000109 19.998839 L 369.999605 170.000591 L 109.999251 300.000215 Z M 109.999251 260.000695 " stroke="#000000" stroke-width="1" stroke-opacity="1" stroke-miterlimit="4"/></g></svg>